<svg width="27" height="30" viewBox="0 0 27 30" fill="none" xmlns="http://www.w3.org/2000/svg">
<mask id="mask0_0_2447" style="mask-type:alpha" maskUnits="userSpaceOnUse" x="0" y="0" width="27" height="30">
<path fill-rule="evenodd" clip-rule="evenodd" d="M0 0H26.25V30H0V0Z" fill="white"/>
</mask>
<g mask="url(#mask0_0_2447)">
<path fill-rule="evenodd" clip-rule="evenodd" d="M16.9043 6.48261C16.9043 6.09939 16.9215 5.73941 16.9013 5.38156C16.8149 3.84707 16.0614 2.7244 14.6526 2.10475C13.2522 1.48875 11.903 1.68899 10.714 2.65094C9.48505 3.64518 9.21992 4.99099 9.38659 6.48261H16.9043ZM24.3398 28.2008C24.3398 28.1287 24.3451 28.0708 24.3391 28.0142C24.0138 24.9664 23.6852 21.919 23.3619 18.8709C22.9973 15.4346 22.6359 11.9979 22.2788 8.56082C22.2567 8.34783 22.1923 8.26298 21.9563 8.26632C20.969 8.2803 19.9814 8.27178 18.9939 8.27308C18.9091 8.27319 18.8245 8.28512 18.7358 8.29187C18.7306 8.38653 18.7238 8.45418 18.7236 8.52189C18.7226 9.08839 18.7305 9.65501 18.7203 10.2213C18.7108 10.7446 18.3315 11.125 17.8344 11.1325C17.3322 11.1401 16.9461 10.7777 16.9127 10.2567C16.9003 10.0621 16.9089 9.86623 16.9087 9.67086C16.9084 9.21505 16.9086 8.75919 16.9086 8.28876H9.35542C9.35542 8.39933 9.35542 8.49434 9.35542 8.58936C9.35536 9.107 9.35833 9.6247 9.35453 10.1423C9.35027 10.7311 8.98715 11.1285 8.45683 11.1328C7.91514 11.1371 7.5445 10.7342 7.53999 10.1311C7.53703 9.7307 7.5394 9.33021 7.53934 8.92978C7.53934 8.71902 7.53934 8.50826 7.53934 8.29134H4.02123C3.31614 14.9326 2.61277 21.5574 1.90744 28.2008H24.3398ZM0 29.3552C0 29.1598 0 28.9644 0 28.769C0.0187811 28.6951 0.0469231 28.6221 0.0549214 28.5471C0.122285 27.916 0.183782 27.2844 0.251146 26.6533C0.598566 23.4009 0.948179 20.1489 1.29501 16.8965C1.63153 13.7412 1.96479 10.5855 2.30125 7.43023C2.37063 6.77987 2.69204 6.49336 3.3479 6.49254C4.63194 6.49089 5.91599 6.49207 7.20004 6.49207C7.30514 6.49207 7.4103 6.49207 7.5394 6.49207C7.5394 6.19311 7.53016 5.93062 7.54171 5.66906C7.55676 5.32806 7.55765 4.98236 7.61761 4.64799C8.16024 1.62258 10.792 -0.309408 13.8777 0.0408751C16.3426 0.32069 18.4336 2.41822 18.6718 4.86749C18.7234 5.39806 18.7233 5.93343 18.7482 6.49207H19.0772C20.3612 6.49207 21.6453 6.4906 22.9293 6.49271C23.557 6.49377 23.8877 6.77499 23.9561 7.38513C24.0965 8.63675 24.2269 9.88949 24.3603 11.1419C24.5671 13.0837 24.7729 15.0256 24.9791 16.9674C25.1875 18.9287 25.3961 20.8898 25.6042 22.8511C25.8102 24.7929 26.0002 26.7366 26.2307 28.6756C26.3023 29.2775 26.1923 29.7337 25.6037 30H0.651947C0.434632 29.7851 0.217316 29.5701 0 29.3552Z" fill="#652745"/>
</g>
</svg>
