<?xml version="1.0" encoding="utf-8"?>
<!-- Generator: Adobe Illustrator 17.0.0, SVG Export Plug-In . SVG Version: 6.00 Build 0)  -->
<!DOCTYPE svg PUBLIC "-//W3C//DTD SVG 1.1//EN" "http://www.w3.org/Graphics/SVG/1.1/DTD/svg11.dtd">
<svg version="1.1" id="Layer_1" xmlns="http://www.w3.org/2000/svg" xmlns:xlink="http://www.w3.org/1999/xlink" x="0px" y="0px"
	 width="56.693px" height="56.693px" viewBox="0 0 56.693 56.693" enable-background="new 0 0 56.693 56.693" xml:space="preserve">
<g>
	
		<path fill="none" stroke="#84a9a5" stroke-width="0.75" stroke-linecap="round" stroke-linejoin="round" stroke-miterlimit="10" d="
		M38.76,49.537H17.933c-2.534-2.534-3.954-3.954-6.488-6.488V13.644c2.534-2.534,3.954-3.954,6.488-6.488H38.76
		c2.534,2.534,3.954,3.954,6.488,6.488v29.406C42.714,45.583,41.293,47.004,38.76,49.537z"/>
	
		<path fill="none" stroke="#84a9a5" stroke-width="0.75" stroke-linecap="round" stroke-linejoin="round" stroke-miterlimit="10" d="
		M36.769,45.486H19.924c-2.049-2.049-3.198-3.198-5.248-5.248V16.455c2.049-2.049,3.198-3.198,5.248-5.248h16.845
		c2.049,2.049,3.198,3.198,5.248,5.248v23.784C39.967,42.288,38.818,43.437,36.769,45.486z"/>
	
		<path fill="none" stroke="#84a9a5" stroke-width="0.75" stroke-linecap="round" stroke-linejoin="round" stroke-miterlimit="10" d="
		M33.804,39.453H22.889c-1.328-1.328-2.072-2.072-3.4-3.4V20.641c1.328-1.328,2.072-2.072,3.4-3.4h10.915
		c1.328,1.328,2.072,2.072,3.4,3.4v15.411C35.876,37.38,35.132,38.125,33.804,39.453z"/>
	
		<line fill="none" stroke="#84a9a5" stroke-width="0.75" stroke-linecap="round" stroke-linejoin="round" stroke-miterlimit="10" x1="17.933" y1="7.155" x2="22.889" y2="17.24"/>
	
		<polyline fill="none" stroke="#84a9a5" stroke-width="0.75" stroke-linecap="round" stroke-linejoin="round" stroke-miterlimit="10" points="
		38.76,49.537 33.804,39.453 28.346,49.537 22.889,39.453 17.933,49.537 	"/>
	
		<polyline fill="none" stroke="#84a9a5" stroke-width="0.75" stroke-linecap="round" stroke-linejoin="round" stroke-miterlimit="10" points="
		33.804,39.453 45.248,43.049 37.204,36.052 45.248,28.346 37.204,20.641 45.248,13.644 33.804,17.24 38.76,7.155 	"/>
	
		<polyline fill="none" stroke="#84a9a5" stroke-width="0.75" stroke-linecap="round" stroke-linejoin="round" stroke-miterlimit="10" points="
		22.889,39.453 11.445,43.049 19.489,36.052 11.445,28.346 19.489,20.641 11.445,13.644 22.889,17.24 28.346,7.155 33.804,17.24 	
		"/>
</g>
</svg>