<?xml version="1.0" encoding="utf-8"?>
<!-- Generator: Adobe Illustrator 17.0.0, SVG Export Plug-In . SVG Version: 6.00 Build 0)  -->
<!DOCTYPE svg PUBLIC "-//W3C//DTD SVG 1.1//EN" "http://www.w3.org/Graphics/SVG/1.1/DTD/svg11.dtd">
<svg version="1.1" id="Layer_1" xmlns="http://www.w3.org/2000/svg" xmlns:xlink="http://www.w3.org/1999/xlink" x="0px" y="0px"
	 width="56.693px" height="56.693px" viewBox="0 0 56.693 56.693" enable-background="new 0 0 56.693 56.693" xml:space="preserve">
<g>
	
		<path fill="none" stroke="#84a9a5" stroke-width="0.75" stroke-linecap="round" stroke-linejoin="round" stroke-miterlimit="10" d="
		M34.289,17.136v22.421c-1.184,1.184-1.847,1.847-3.031,3.031h-5.823c-1.184-1.184-1.847-1.847-3.031-3.031V17.136
		c1.184-1.184,1.847-1.847,3.031-3.031h5.823C32.442,15.289,33.105,15.952,34.289,17.136z"/>
	<g>
		
			<path fill="none" stroke="#84a9a5" stroke-width="0.75" stroke-linecap="round" stroke-linejoin="round" stroke-miterlimit="10" d="
			M40.919,10.949v34.795c-2.188,2.188-3.415,3.415-5.603,5.603h-13.94c-2.188-2.188-3.415-3.415-5.603-5.603V10.949
			c2.188-2.188,3.415-3.415,5.603-5.603h13.94C37.504,7.534,38.731,8.761,40.919,10.949z"/>
		
			<path fill="none" stroke="#84a9a5" stroke-width="0.75" stroke-linecap="round" stroke-linejoin="round" stroke-miterlimit="10" d="
			M36.996,14.746v27.2c-1.591,1.591-2.483,2.483-4.074,4.074H23.77c-1.591-1.591-2.483-2.483-4.074-4.074v-27.2
			c1.591-1.591,2.483-2.483,4.074-4.074h9.152C34.513,12.264,35.405,13.156,36.996,14.746z"/>
		
			<line fill="none" stroke="#84a9a5" stroke-width="0.75" stroke-linecap="round" stroke-linejoin="round" stroke-miterlimit="10" x1="15.774" y1="45.744" x2="22.404" y2="39.557"/>
		
			<line fill="none" stroke="#84a9a5" stroke-width="0.75" stroke-linecap="round" stroke-linejoin="round" stroke-miterlimit="10" x1="21.377" y1="51.346" x2="25.435" y2="42.588"/>
		
			<line fill="none" stroke="#84a9a5" stroke-width="0.75" stroke-linecap="round" stroke-linejoin="round" stroke-miterlimit="10" x1="35.316" y1="51.346" x2="31.258" y2="42.588"/>
		
			<line fill="none" stroke="#84a9a5" stroke-width="0.75" stroke-linecap="round" stroke-linejoin="round" stroke-miterlimit="10" x1="40.919" y1="45.744" x2="34.289" y2="39.557"/>
		
			<line fill="none" stroke="#84a9a5" stroke-width="0.75" stroke-linecap="round" stroke-linejoin="round" stroke-miterlimit="10" x1="40.919" y1="10.949" x2="34.289" y2="17.136"/>
		
			<line fill="none" stroke="#84a9a5" stroke-width="0.75" stroke-linecap="round" stroke-linejoin="round" stroke-miterlimit="10" x1="35.316" y1="5.346" x2="31.258" y2="14.105"/>
		
			<line fill="none" stroke="#84a9a5" stroke-width="0.75" stroke-linecap="round" stroke-linejoin="round" stroke-miterlimit="10" x1="21.377" y1="5.346" x2="25.435" y2="14.105"/>
		
			<line fill="none" stroke="#84a9a5" stroke-width="0.75" stroke-linecap="round" stroke-linejoin="round" stroke-miterlimit="10" x1="15.774" y1="10.949" x2="22.404" y2="17.136"/>
	</g>
</g>
</svg>