<?xml version="1.0" encoding="utf-8"?>
<!-- Generator: Adobe Illustrator 17.0.0, SVG Export Plug-In . SVG Version: 6.00 Build 0)  -->
<!DOCTYPE svg PUBLIC "-//W3C//DTD SVG 1.1//EN" "http://www.w3.org/Graphics/SVG/1.1/DTD/svg11.dtd">
<svg version="1.1" id="Layer_1" xmlns="http://www.w3.org/2000/svg" xmlns:xlink="http://www.w3.org/1999/xlink" x="0px" y="0px"
	 width="56.693px" height="56.693px" viewBox="0 0 56.693 56.693" enable-background="new 0 0 56.693 56.693" xml:space="preserve">
<g>
	
		<path fill="none" stroke="#84a9a5" stroke-width="0.75" stroke-linecap="round" stroke-linejoin="round" stroke-miterlimit="10" d="
		M28.346,14.348C30.112,6.728,48.885,1.245,50,18.066c1.115,16.821-21.654,31.598-21.654,31.598S5.578,34.887,6.693,18.066
		C7.808,1.245,26.581,6.728,28.346,14.348z"/>
	<g>
		
			<polyline fill="none" stroke="#84a9a5" stroke-width="0.75" stroke-linecap="round" stroke-linejoin="round" stroke-miterlimit="10" points="
			21.344,44.227 25.151,39.271 15.098,37.972 15.522,29.752 9.426,29.752 		"/>
		
			<polyline fill="none" stroke="#84a9a5" stroke-width="0.75" stroke-linecap="round" stroke-linejoin="round" stroke-miterlimit="10" points="
			15.522,29.752 18.379,24.873 11.897,18.321 6.908,16.177 		"/>
		
			<polyline fill="none" stroke="#84a9a5" stroke-width="0.75" stroke-linecap="round" stroke-linejoin="round" stroke-miterlimit="10" points="
			11.897,18.321 18.379,16.997 22.307,12.724 19.667,7.369 		"/>
		
			<polyline fill="none" stroke="#84a9a5" stroke-width="0.75" stroke-linecap="round" stroke-linejoin="round" stroke-miterlimit="10" points="
			25.151,39.271 28.346,36.989 22.91,31.983 18.379,24.873 18.379,16.997 28.346,14.348 10.15,9.455 11.897,18.321 7.416,24.67 
			15.522,29.752 22.91,31.983 28.346,49.663 		"/>
		
			<polyline fill="none" stroke="#84a9a5" stroke-width="0.75" stroke-linecap="round" stroke-linejoin="round" stroke-miterlimit="10" points="
			35.349,44.227 31.542,39.271 41.595,37.972 41.171,29.752 47.266,29.752 		"/>
		
			<polyline fill="none" stroke="#84a9a5" stroke-width="0.75" stroke-linecap="round" stroke-linejoin="round" stroke-miterlimit="10" points="
			41.171,29.752 38.314,24.873 44.796,18.321 49.785,16.177 		"/>
		
			<polyline fill="none" stroke="#84a9a5" stroke-width="0.75" stroke-linecap="round" stroke-linejoin="round" stroke-miterlimit="10" points="
			44.796,18.321 38.314,16.997 34.386,12.724 37.026,7.369 		"/>
		
			<polyline fill="none" stroke="#84a9a5" stroke-width="0.75" stroke-linecap="round" stroke-linejoin="round" stroke-miterlimit="10" points="
			31.542,39.271 28.346,36.989 33.783,31.983 38.314,24.873 38.314,16.997 28.346,14.348 46.543,9.455 44.796,18.321 49.277,24.67 
			41.171,29.752 33.783,31.983 28.346,49.663 		"/>
	</g>
</g>
</svg>
