<?xml version="1.0" encoding="utf-8"?>
<!-- Generator: Adobe Illustrator 17.0.0, SVG Export Plug-In . SVG Version: 6.00 Build 0)  -->
<!DOCTYPE svg PUBLIC "-//W3C//DTD SVG 1.1//EN" "http://www.w3.org/Graphics/SVG/1.1/DTD/svg11.dtd">
<svg version="1.1" id="Layer_1" xmlns="http://www.w3.org/2000/svg" xmlns:xlink="http://www.w3.org/1999/xlink" x="0px" y="0px"
	 width="56.693px" height="56.693px" viewBox="0 0 56.693 56.693" enable-background="new 0 0 56.693 56.693" xml:space="preserve">
<g>
	
		<path fill="none" stroke="#84a9a5" stroke-width="0.75" stroke-linecap="round" stroke-linejoin="round" stroke-miterlimit="10" d="
		M41.721,28.346c0,12.865-13.375,23.294-13.375,23.294S14.971,41.211,14.971,28.346c0-12.865,13.375-23.293,13.375-23.293
		S41.721,15.482,41.721,28.346z"/>
	
		<path fill="none" stroke="#84a9a5" stroke-width="0.75" stroke-linecap="round" stroke-linejoin="round" stroke-miterlimit="10" d="
		M41.709,28.346c-3.559,5.066-7.952,9.562-13.362,13.362c-5.466-3.784-10.005-8.182-13.363-13.363
		c3.56-5.687,8.084-10.046,13.363-13.362C33.783,18.623,38.188,23.118,41.709,28.346z"/>
	
		<polyline fill="none" stroke="#84a9a5" stroke-width="0.75" stroke-linecap="round" stroke-linejoin="round" stroke-miterlimit="10" points="
		28.346,5.555 28.347,14.984 35.398,12.45 34.278,19.58 39.746,19.696 39.014,24.574 	"/>
	
		<polyline fill="none" stroke="#84a9a5" stroke-width="0.75" stroke-linecap="round" stroke-linejoin="round" stroke-miterlimit="10" points="
		28.346,5.283 28.346,14.984 21.4,12.488 22.245,19.513 17.096,19.576 17.539,24.574 	"/>
	
		<polyline fill="none" stroke="#84a9a5" stroke-width="0.75" stroke-linecap="round" stroke-linejoin="round" stroke-miterlimit="10" points="
		28.346,5.555 28.347,14.984 35.398,12.45 34.278,19.58 39.746,19.696 39.014,24.574 	"/>
	
		<polyline fill="none" stroke="#84a9a5" stroke-width="0.75" stroke-linecap="round" stroke-linejoin="round" stroke-miterlimit="10" points="
		28.346,5.749 28.346,14.984 21.4,12.488 22.245,19.513 17.096,19.576 17.539,24.574 	"/>
	
		<polyline fill="none" stroke="#84a9a5" stroke-width="0.75" stroke-linecap="round" stroke-linejoin="round" stroke-miterlimit="10" points="
		28.346,51.054 28.347,41.729 35.398,44.262 34.278,37.133 39.746,37.017 39.014,32.139 	"/>
	
		<polyline fill="none" stroke="#84a9a5" stroke-width="0.75" stroke-linecap="round" stroke-linejoin="round" stroke-miterlimit="10" points="
		28.346,51.054 28.346,41.729 21.4,44.225 22.245,37.2 17.096,37.137 17.539,32.139 	"/>
	<g>
		
			<line fill="none" stroke="#84a9a5" stroke-width="0.75" stroke-linecap="round" stroke-linejoin="round" stroke-miterlimit="10" x1="15.286" y1="28.347" x2="19.832" y2="28.356"/>
		
			<polyline fill="none" stroke="#84a9a5" stroke-width="0.75" stroke-linecap="round" stroke-linejoin="round" stroke-miterlimit="10" points="
			20.128,21.906 19.832,28.356 19.832,34.214 		"/>
		
			<polyline fill="none" stroke="#84a9a5" stroke-width="0.75" stroke-linecap="round" stroke-linejoin="round" stroke-miterlimit="10" points="
			28.346,41.729 19.832,28.356 28.346,14.984 		"/>
	</g>
	<g>
		
			<line fill="none" stroke="#84a9a5" stroke-width="0.75" stroke-linecap="round" stroke-linejoin="round" stroke-miterlimit="10" x1="15.286" y1="28.347" x2="19.832" y2="28.356"/>
		
			<polyline fill="none" stroke="#84a9a5" stroke-width="0.75" stroke-linecap="round" stroke-linejoin="round" stroke-miterlimit="10" points="
			20.128,21.906 19.832,28.356 19.832,34.483 		"/>
		
			<polyline fill="none" stroke="#84a9a5" stroke-width="0.75" stroke-linecap="round" stroke-linejoin="round" stroke-miterlimit="10" points="
			28.346,41.729 19.832,28.356 28.346,14.984 		"/>
	</g>
	<g>
		
			<line fill="none" stroke="#84a9a5" stroke-width="0.75" stroke-linecap="round" stroke-linejoin="round" stroke-miterlimit="10" x1="41.407" y1="28.35" x2="36.861" y2="28.358"/>
		
			<polyline fill="none" stroke="#84a9a5" stroke-width="0.75" stroke-linecap="round" stroke-linejoin="round" stroke-miterlimit="10" points="
			36.578,22.147 36.861,28.358 36.86,34.216 		"/>
		
			<polyline fill="none" stroke="#84a9a5" stroke-width="0.75" stroke-linecap="round" stroke-linejoin="round" stroke-miterlimit="10" points="
			28.344,41.729 36.861,28.358 28.349,14.984 		"/>
	</g>
	
		<path fill="none" stroke="#84a9a5" stroke-width="0.75" stroke-linecap="round" stroke-linejoin="round" stroke-miterlimit="10" d="
		M36.353,21.906"/>
</g>
</svg>