<?xml version="1.0" encoding="utf-8"?>
<!-- Generator: Adobe Illustrator 17.0.0, SVG Export Plug-In . SVG Version: 6.00 Build 0)  -->
<!DOCTYPE svg PUBLIC "-//W3C//DTD SVG 1.1//EN" "http://www.w3.org/Graphics/SVG/1.1/DTD/svg11.dtd">
<svg version="1.1" id="Layer_1" xmlns="http://www.w3.org/2000/svg" xmlns:xlink="http://www.w3.org/1999/xlink" x="0px" y="0px"
	 width="56.693px" height="56.693px" viewBox="0 0 56.693 56.693" enable-background="new 0 0 56.693 56.693" xml:space="preserve">
<g>
	<g>
		
			<path fill="none" stroke="#84a9a5" stroke-width="0.75" stroke-linecap="round" stroke-linejoin="round" stroke-miterlimit="10" d="
			M42.494,36.569c0-0.158-0.007-0.315-0.012-0.472h0.012c0,0,0.589-15.915-14.146-30.12c-14.854,13.852-14.146,30.12-14.146,30.12
			h0.012c-0.005,0.157-0.012,0.313-0.012,0.472c0,7.813,6.333,14.146,14.146,14.146C36.16,50.715,42.494,44.382,42.494,36.569z"/>
		<g>
			
				<line fill="none" stroke="#84a9a5" stroke-width="0.75" stroke-linecap="round" stroke-linejoin="round" stroke-miterlimit="10" x1="37.944" y1="18.833" x2="30.871" y2="14.805"/>
			
				<line fill="none" stroke="#84a9a5" stroke-width="0.75" stroke-linecap="round" stroke-linejoin="round" stroke-miterlimit="10" x1="23.292" y1="11.483" x2="42.497" y2="35.154"/>
			
				<line fill="none" stroke="#84a9a5" stroke-width="0.75" stroke-linecap="round" stroke-linejoin="round" stroke-miterlimit="10" x1="42.497" y1="35.154" x2="37.601" y2="38.354"/>
			
				<polyline fill="none" stroke="#84a9a5" stroke-width="0.75" stroke-linecap="round" stroke-linejoin="round" stroke-miterlimit="10" points="
				37.601,38.354 28.346,42.11 31.354,44.585 			"/>
			
				<polyline fill="none" stroke="#84a9a5" stroke-width="0.75" stroke-linecap="round" stroke-linejoin="round" stroke-miterlimit="10" points="
				25.339,44.585 17.136,45.196 28.345,5.978 28.347,5.978 39.557,45.196 31.354,44.585 			"/>
			
				<polyline fill="none" stroke="#84a9a5" stroke-width="0.75" stroke-linecap="round" stroke-linejoin="round" stroke-miterlimit="10" points="
				18.749,18.833 19.858,28.346 23.217,40.105 28.345,50.715 28.347,50.715 33.476,40.105 36.835,28.346 37.944,18.833 			"/>
			
				<line fill="none" stroke="#84a9a5" stroke-width="0.75" stroke-linecap="round" stroke-linejoin="round" stroke-miterlimit="10" x1="18.749" y1="18.833" x2="25.822" y2="14.805"/>
			
				<line fill="none" stroke="#84a9a5" stroke-width="0.75" stroke-linecap="round" stroke-linejoin="round" stroke-miterlimit="10" x1="33.401" y1="11.483" x2="14.196" y2="35.154"/>
			
				<line fill="none" stroke="#84a9a5" stroke-width="0.75" stroke-linecap="round" stroke-linejoin="round" stroke-miterlimit="10" x1="14.196" y1="35.154" x2="19.091" y2="38.354"/>
			
				<polyline fill="none" stroke="#84a9a5" stroke-width="0.75" stroke-linecap="round" stroke-linejoin="round" stroke-miterlimit="10" points="
				19.091,38.354 28.346,42.11 25.339,44.585 			"/>
			
				<line fill="none" stroke="#84a9a5" stroke-width="0.75" stroke-linecap="round" stroke-linejoin="round" stroke-miterlimit="10" x1="25.339" y1="44.585" x2="21.593" y2="49.001"/>
			
				<line fill="none" stroke="#84a9a5" stroke-width="0.75" stroke-linecap="round" stroke-linejoin="round" stroke-miterlimit="10" x1="31.34" y1="44.585" x2="35.087" y2="49.001"/>
		</g>
	</g>
</g>
</svg>