<?xml version="1.0" encoding="utf-8"?>
<!-- Generator: Adobe Illustrator 17.0.0, SVG Export Plug-In . SVG Version: 6.00 Build 0)  -->
<!DOCTYPE svg PUBLIC "-//W3C//DTD SVG 1.1//EN" "http://www.w3.org/Graphics/SVG/1.1/DTD/svg11.dtd">
<svg version="1.1" id="Layer_1" xmlns="http://www.w3.org/2000/svg" xmlns:xlink="http://www.w3.org/1999/xlink" x="0px" y="0px"
	 width="56.693px" height="56.693px" viewBox="0 0 56.693 56.693" enable-background="new 0 0 56.693 56.693" xml:space="preserve">
<g>
	
		<circle fill="none" stroke="#84a9a5" stroke-width="0.75" stroke-linecap="round" stroke-linejoin="round" stroke-miterlimit="10" cx="28.346" cy="28.346" r="20.732"/>
	
		<polyline fill="none" stroke="#84a9a5" stroke-width="0.75" stroke-linecap="round" stroke-linejoin="round" stroke-miterlimit="10" points="
		17.244,17.354 20.17,9.404 28.337,11.368 28.346,11.368 36.514,9.404 39.44,17.354 	"/>
	
		<polyline fill="none" stroke="#84a9a5" stroke-width="0.75" stroke-linecap="round" stroke-linejoin="round" stroke-miterlimit="10" points="
		17.244,39.278 20.17,47.228 28.337,45.264 28.346,45.264 36.514,47.228 39.44,39.278 	"/>
	
		<polyline fill="none" stroke="#84a9a5" stroke-width="0.75" stroke-linecap="round" stroke-linejoin="round" stroke-miterlimit="10" points="
		17.513,39.444 9.564,36.518 13.201,28.401 13.201,28.316 9.564,20.175 17.513,17.249 	"/>
	
		<polyline fill="none" stroke="#84a9a5" stroke-width="0.75" stroke-linecap="round" stroke-linejoin="round" stroke-miterlimit="10" points="
		39.248,39.444 47.197,36.518 43.56,28.401 43.56,28.316 47.197,20.175 39.248,17.249 	"/>
	
		<path fill="none" stroke="#84a9a5" stroke-width="0.75" stroke-linecap="round" stroke-linejoin="round" stroke-miterlimit="10" d="
		M39.451,17.242c-0.695-0.714-0.615,23.094,0,22.21"/>
	
		<path fill="none" stroke="#84a9a5" stroke-width="0.75" stroke-linecap="round" stroke-linejoin="round" stroke-miterlimit="10" d="
		M17.242,17.242c-0.638,0.824,22.905,0.714,22.21,0"/>
	
		<path fill="none" stroke="#84a9a5" stroke-width="0.75" stroke-linecap="round" stroke-linejoin="round" stroke-miterlimit="10" d="
		M17.242,39.451c0.672,0.767,0.634-23.028,0-22.21"/>
	
		<path fill="none" stroke="#84a9a5" stroke-width="0.75" stroke-linecap="round" stroke-linejoin="round" stroke-miterlimit="10" d="
		M39.451,39.451c0.615-0.885-22.881-0.767-22.21,0"/>
	
		<polygon fill="none" stroke="#84a9a5" stroke-width="0.75" stroke-linecap="round" stroke-linejoin="round" stroke-miterlimit="10" points="
		28.346,11.368 13.201,28.401 28.346,45.264 43.56,28.316 	"/>
	
		<line fill="none" stroke="#84a9a5" stroke-width="0.75" stroke-linecap="round" stroke-linejoin="round" stroke-miterlimit="10" x1="28.346" y1="7.615" x2="28.346" y2="11.368"/>
	
		<line fill="none" stroke="#84a9a5" stroke-width="0.75" stroke-linecap="round" stroke-linejoin="round" stroke-miterlimit="10" x1="28.346" y1="49.078" x2="28.346" y2="45.264"/>
	
		<line fill="none" stroke="#84a9a5" stroke-width="0.75" stroke-linecap="round" stroke-linejoin="round" stroke-miterlimit="10" x1="13.201" y1="28.401" x2="7.615" y2="28.401"/>
	
		<line fill="none" stroke="#84a9a5" stroke-width="0.75" stroke-linecap="round" stroke-linejoin="round" stroke-miterlimit="10" x1="43.56" y1="28.316" x2="49.078" y2="28.316"/>
</g>
</svg>