<svg width="30" height="30" viewBox="0 0 30 30" fill="none" xmlns="http://www.w3.org/2000/svg">
<mask id="mask0_0_2442" style="mask-type:alpha" maskUnits="userSpaceOnUse" x="0" y="0" width="30" height="30">
<path fill-rule="evenodd" clip-rule="evenodd" d="M0 0H30V30H0V0Z" fill="white"/>
</mask>
<g mask="url(#mask0_0_2442)">
<path fill-rule="evenodd" clip-rule="evenodd" d="M23.3218 12.3545C23.2716 11.8789 23.2404 11.3221 23.1503 10.775C22.6502 7.73773 21.0826 5.37116 18.533 3.68338C16.2532 2.17424 13.7259 1.64671 11.017 2.04673C8.33597 2.44263 6.09985 3.68067 4.3783 5.75988C2.29143 8.28023 1.52467 11.1999 2.15355 14.4137C2.79157 17.6742 4.6343 20.1389 7.57099 21.6583C11.1366 23.503 14.7552 23.4253 18.2071 21.3461C21.5288 19.3455 23.1617 16.2948 23.3218 12.3545ZM13.4185 0C13.9578 0.0771667 14.5012 0.1334 15.036 0.234999C17.6342 0.728694 19.8579 1.93561 21.7089 3.81647C23.3928 5.52758 24.5055 7.56074 24.9825 9.91786C25.5823 12.881 25.1669 15.7068 23.6799 18.3436C23.2038 19.1879 22.6027 19.9617 22.0378 20.7987C22.054 20.8161 22.1158 20.8882 22.1832 20.9546C24.6391 23.3724 27.0955 25.7898 29.5518 28.2072C30.0847 28.7317 30.1457 29.287 29.7172 29.7146C29.2917 30.1394 28.7147 30.087 28.1967 29.5772C25.7265 27.146 23.2563 24.7148 20.7858 22.284C20.7174 22.2166 20.6454 22.153 20.5724 22.0852C20.1759 22.3562 19.7989 22.632 19.4046 22.8806C17.195 24.2738 14.7728 24.9252 12.1715 24.8282C8.73997 24.7004 5.81531 23.3824 3.42836 20.9097C1.63431 19.0513 0.547841 16.8316 0.141871 14.2804C0.086989 13.9357 0.0469016 13.5886 0 13.2427C0 12.6958 0 12.1489 0 11.602C0.0179258 11.5175 0.0402716 11.4337 0.0529792 11.3484C0.125971 10.857 0.170295 10.3596 0.272692 9.87445C0.762643 7.55264 1.84948 5.54317 3.50639 3.84882C5.36655 1.9466 7.60298 0.728081 10.2225 0.232974C10.7372 0.135671 11.2592 0.0766756 11.7778 0H13.4185Z" fill="#652745"/>
</g>
</svg>
